<?xml version="1.0" encoding="UTF-8" standalone="yes"?>
<svg xmlns="http://www.w3.org/2000/svg" viewBox="0 0 24 24" width="24" height="24" fill="#868fac">
  <path d="M 10.707031 3.589844 L 2.859375 11.4375 C 2.070313 12.226563 2.070313 13.503906 2.859375 14.292969 L 8.566406 20 L 15.699219 20 L 21.40625 14.292969 C 22.195313 13.503906 22.195313 12.226563 21.40625 11.4375 L 13.558594 3.589844 C 12.773438 2.800781 11.492188 2.800781 10.707031 3.589844 Z M 12.847656 17.144531 L 12.132813 17.859375 C 11.738281 18.253906 11.101563 18.253906 10.707031 17.859375 L 9.992188 17.144531 L 11.421875 15.71875 Z M 13.558594 12.152344 L 9.992188 15.71875 C 9.597656 16.113281 8.960938 16.113281 8.566406 15.71875 L 7.851563 15.007813 L 12.132813 10.726563 Z M 13.558594 7.871094 L 7.851563 13.578125 C 7.457031 13.972656 6.820313 13.972656 6.425781 13.578125 L 5.710938 12.867188 L 12.132813 6.445313 Z"/>
</svg>
