<?xml version="1.0" encoding="utf-8"?>
<!-- Generator: Adobe Illustrator 18.0.0, SVG Export Plug-In . SVG Version: 6.00 Build 0)  -->
<!DOCTYPE svg PUBLIC "-//W3C//DTD SVG 1.1//EN" "http://www.w3.org/Graphics/SVG/1.1/DTD/svg11.dtd">
<svg version="1.1" id="Layer_1" xmlns="http://www.w3.org/2000/svg" xmlns:xlink="http://www.w3.org/1999/xlink" x="0px" y="0px"
	 viewBox="0 0 96 56" enable-background="new 0 0 96 56" xml:space="preserve">
<g>
	<path fill="#FFFFFF" d="M19.7,40.4c-3.9-2.7-6.5-6.8-7-11.5l0-2.4c0.6-8.3,7.5-14.8,16-14.8c1.9,0,3.7,0.3,5.4,0.9L16.7,29.9
		c0,0,1.1,6.4,7.4,7.4l26.1-25.9l-2.9-3.3l0,0C47.2,8,47,7.8,46.9,7.7l0,0l0,0C41.9,3.1,35.3,0.3,28,0.3C13.4,0.3,1.4,11.7,0.4,26.1
		l0,0l0.2,3.2C1,38,5.5,45.5,12.3,50.3L19.7,40.4z"/>
	<path fill="#FFFFFF" d="M76.2,12.1c4.1,0,7.8,1.5,10.6,4l8.1-7.5c-5-4.9-11.8-7.9-19.3-7.9C60.8,0.8,48.7,12.4,48,27h12.2
		C60.8,18.7,67.7,12.1,76.2,12.1z"/>
	<path fill="#FFFFFF" d="M87.6,39c-2.9,3-6.9,4.9-11.4,4.9c-8.2,0-15-6.3-15.8-14.4H48.3c-3.7,7.2-7.3,10.5-9.5,12
		c-2.5,1.5-5.5,2.3-8.6,2.3c-2.7,0-5.3-0.6-7.6-1.8l-7.3,10c4.2,2.3,9.1,3.7,14.3,3.7c7.7,0,13.4-0.6,20.3-6.7
		c1.4-1.2,2.7-2.8,3.8-4.4c5,6.8,13,11.2,22,11.2c7.9,0,15-3.4,20-8.7L87.6,39z"/>
</g>
</svg>
