<?xml version="1.0" encoding="utf-8"?>
<!-- Generator: Adobe Illustrator 18.0.0, SVG Export Plug-In . SVG Version: 6.00 Build 0)  -->
<!DOCTYPE svg PUBLIC "-//W3C//DTD SVG 1.1//EN" "http://www.w3.org/Graphics/SVG/1.1/DTD/svg11.dtd">
<svg version="1.1" id="Layer_1" xmlns="http://www.w3.org/2000/svg" xmlns:xlink="http://www.w3.org/1999/xlink" x="0px" y="0px"
	 viewBox="0 0 313.5 60" enable-background="new 0 0 313.5 60" xml:space="preserve">
<g>
	<g>
		<path fill="#163293" d="M22,40.1c-3.1-2.2-5.3-5.6-5.7-9.3l0-2c0.5-6.8,6.1-12.1,13-12.1c1.5,0,3,0.3,4.4,0.7L19.5,31.6
			c0,0,0.9,5.2,6,6l21.3-21.1l-2.3-2.6l0,0c-0.1-0.1-0.3-0.2-0.4-0.4l0,0l0,0c-4-3.7-9.4-6-15.4-6c-11.9,0-21.7,9.3-22.5,21l0,0
			l0.1,2.6c0.4,7.1,4,13.2,9.6,17.1L22,40.1z"/>
		<linearGradient id="SVGID_1_" gradientUnits="userSpaceOnUse" x1="44.9721" y1="18.4895" x2="83.2318" y2="18.4895">
			<stop  offset="3.191751e-003" style="stop-color:#1F45CF"/>
			<stop  offset="0.2144" style="stop-color:#184FCF"/>
			<stop  offset="0.5967" style="stop-color:#105ACF"/>
			<stop  offset="1" style="stop-color:#0D5ECF"/>
		</linearGradient>
		<path fill="url(#SVGID_1_)" d="M68,17.1c3.3,0,6.4,1.2,8.7,3.3l6.6-6.1c-4.1-4-9.6-6.4-15.7-6.4c-12.1,0-21.9,9.5-22.5,21.4h10
			C55.4,22.4,61.1,17.1,68,17.1z"/>
		<linearGradient id="SVGID_2_" gradientUnits="userSpaceOnUse" x1="19.812" y1="38.7475" x2="83.4683" y2="47.6938">
			<stop  offset="0" style="stop-color:#203A93"/>
			<stop  offset="0.3056" style="stop-color:#1948AA"/>
			<stop  offset="0.7431" style="stop-color:#1058C5"/>
			<stop  offset="1" style="stop-color:#0D5ECF"/>
		</linearGradient>
		<path fill="url(#SVGID_2_)" d="M77.3,39c-2.3,2.4-5.6,4-9.3,4c-6.7,0-12.2-5.2-12.9-11.8h-9.9c-3,5.9-5.9,8.6-7.8,9.8
			c-2.1,1.2-4.5,1.9-7,1.9c-2.2,0-4.3-0.5-6.2-1.5l-6,8.1c3.4,1.9,7.4,3,11.7,3c6.3,0,10.9-0.5,16.5-5.4c1.1-1,2.2-2.2,3.1-3.6
			c4.1,5.5,10.6,9.1,17.9,9.1c6.4,0,12.2-2.7,16.3-7.1L77.3,39z"/>
	</g>
	<g id="text">
		<path fill="#163293" d="M111.1,34.4c0-7.3,5.3-10.7,10.8-10.7c5.4,0,10.7,3.3,10.1,12.1L116.7,36c0,1.6,1.5,4.2,4.9,4.4
			c2.5,0.2,4-1,4.9-2.7l5,1.6c-1,2.5-4.2,5.7-9.6,5.7C115.4,45,111.1,40.2,111.1,34.4z M116.7,31.9l9.6,0c0-1.9-2-4-5.2-3.8
			C119.2,28.2,116.9,29.6,116.7,31.9z"/>
		<path fill="#163293" d="M162.8,28.7c-3.2,0.4-4.9,3.1-4.8,5.4c0,3,1.8,5.6,5,5.8c2.2,0.2,4.3-1.2,5-3.2l5.3,1.6
			c-1.6,4.5-5.7,7.2-10.6,7c-5.5-0.2-10.2-4.3-10.2-11.2c0-6,5.2-10.7,10.5-10.8c6,0,9,3.6,10.1,7.1l-5.2,1.4
			C166.4,28.9,164.3,28.5,162.8,28.7z"/>
		<path fill="#163293" d="M183.1,45.2h-5.7V15.3h5.7V45.2z"/>
		<path fill="#163293" d="M187.7,18.1c0-1.9,1.5-3.3,3.4-3.3c1.8,0,3.4,1.4,3.4,3.3c0,1.9-1.5,3.3-3.4,3.3
			C189.2,21.4,187.7,20,187.7,18.1z M194,45.2h-5.7V24.7h5.7V45.2z"/>
		<path fill="#163293" d="M204.2,25v2.9c0.4-0.5,2.1-3.1,5.2-3.4c4.3-0.5,6.9,1.6,7.9,3.6c0.6,1.2,0.9,2.9,0.9,6.5v10.7h-5.5V34.3
			c0-3.5-0.9-5-4.1-5c-1.8,0-4,1.8-4,5.8v10.1H199V25H204.2z"/>
		<path fill="#163293" d="M231.8,28.7c-3.2,0.4-4.9,3.1-4.8,5.4c0,3,1.8,5.6,5,5.8c2.2,0.2,4.3-1.2,5-3.2l5.3,1.6
			c-1.6,4.5-5.7,7.2-10.6,7c-5.5-0.2-10.2-4.3-10.2-11.2c0-6,5.2-10.7,10.5-10.8c6,0,9,3.6,10.1,7.1l-5.2,1.4
			C235.4,28.9,233.3,28.5,231.8,28.7z"/>
		<path fill="#163293" d="M245.6,15.3l6,0v11.6c0.4-0.8,2.7-2.5,5.6-2.5c6.6,0,7.7,5.2,7.7,8.6v12.2h-5.9V33.8
			c0-3.7-2.2-4.4-3.7-4.4c-1.5,0-3.9,0.9-3.9,4.4v11.5h-5.8L245.6,15.3z"/>
		<path fill="#163293" d="M268.3,34.7c0-7.3,5.3-10.7,10.8-10.7c5.4,0,10.7,3.3,10.1,12.1l-15.3,0.2c0,1.6,1.5,4.2,4.9,4.4
			c2.5,0.2,4-1,4.9-2.7l5,1.6c-1,2.5-4.2,5.7-9.6,5.7C272.6,45.2,268.3,40.5,268.3,34.7z M273.9,32.2l9.6,0c0-1.9-2-4-5.2-3.8
			C276.3,28.5,274.1,29.9,273.9,32.2z"/>
		<path fill="#163293" d="M298.2,45.2l-5.3,0v-20h5.3v3c0.7-1.6,1.6-2.6,3.6-3.3c1.5-0.5,4-0.4,5.4,0.4l-1.5,4.9
			c-1.6-0.8-4.3-0.9-5.9,0.9c-1.4,1.6-1.6,2.8-1.6,8.1V45.2z"/>
		<rect x="138.4" y="32.6" fill="#163293" width="8.5" height="3.7"/>
	</g>
</g>
</svg>
