<?xml version="1.0" encoding="utf-8"?>
<!-- Generator: Adobe Illustrator 23.0.0, SVG Export Plug-In . SVG Version: 6.00 Build 0)  -->
<svg version="1.1" id="Layer_1" xmlns="http://www.w3.org/2000/svg" xmlns:xlink="http://www.w3.org/1999/xlink" x="0px" y="0px"
	 viewBox="0 0 24 24" style="enable-background:new 0 0 24 24;" xml:space="preserve">
<g>
	<path fill="#fe5419" d="M21.2,1.4C21,0.9,20.3,0,19,0H5C4.1,0,3.3,0.5,2.8,1.3c0,0,0,0.1,0,0.1C-0.2,10.6,0,10,0,10.2l0,0c0,0,0,0,0,0l0,0
		c0,1.2,0.6,2.2,1.6,2.9v8.6C1.6,22.9,2.7,24,4,24h16c1.3,0,2.4-1.1,2.4-2.3V13c1-0.7,1.6-1.8,1.6-2.9l0,0C24,10,24.2,10.6,21.2,1.4
		z M19,1.6c0.3,0,0.5,0.1,0.7,0.4l2.4,7.4h-3.6l-1.3-7.8H19z M12.8,1.6h2.8l1.3,7.8h-4.1V1.6z M16.9,11c-0.3,0.6-1.1,1-1.9,1
		c-0.8,0-1.6-0.4-1.9-1H16.9z M8.4,1.6h2.8v7.8H7.1L8.4,1.6z M11,11c-0.3,0.6-1.1,1-1.9,1c-0.8,0-1.6-0.4-1.9-1H11z M4.3,2
		C4.4,1.7,4.7,1.6,5,1.6h1.8L5.5,9.4H1.9L4.3,2z M1.8,11h3.4c-0.3,0.6-0.9,1-1.7,1C2.7,12,2.1,11.6,1.8,11z M20,22.4H4
		c-0.4,0-0.8-0.4-0.8-0.8v-8.1c0.1,0,0.2,0,0.3,0c1.1,0,2.1-0.5,2.7-1.3c0.7,0.8,1.7,1.3,2.9,1.3c1.2,0,2.2-0.5,2.9-1.3
		c0.7,0.8,1.7,1.3,2.9,1.3c1.2,0,2.2-0.5,2.9-1.3c0.6,0.8,1.6,1.3,2.7,1.3c0.1,0,0.2,0,0.3,0v8.1h0C20.8,22.1,20.4,22.4,20,22.4z
		 M20.5,12c-0.7,0-1.4-0.4-1.7-1h3.4C21.9,11.6,21.3,12,20.5,12z"/>
</g>
<g>
	<path fill="#fe5419" d="M15.8,17.2v1.2h1.7c-0.1,0.4-0.3,0.7-0.6,0.9c-0.3,0.2-0.6,0.3-1.1,0.3c-0.8,0-1.5-0.5-1.7-1.3C14,18.2,14,18,14,17.8
		c0-0.2,0-0.4,0.1-0.6c0.2-0.7,0.9-1.3,1.7-1.3c0.5,0,0.9,0.2,1.2,0.5l0.9-0.9c-0.5-0.5-1.2-0.8-2.1-0.8c-1.2,0-2.3,0.7-2.8,1.7
		c-0.2,0.4-0.3,0.9-0.3,1.4c0,0.5,0.1,1,0.3,1.4c0.5,1,1.6,1.7,2.8,1.7c0.8,0,1.5-0.3,2.1-0.8c0.6-0.5,0.9-1.3,0.9-2.3v0
		c0-0.2,0-0.4-0.1-0.6H15.8z"/>
</g>
</svg>
